# Cone 
# Center-of-mass: 0,0,0
# Center-of-base: 0,-1,0
# Top vertex: 0,3,0
# Base radius: 1
# Height: 4
mtllib solids.mtl
o Cone
g ConeSurface
v 0.000000 -1.000000 -1.000000
v 0.000000 3.000000 0.000000
v 0.195090 -1.000000 -0.980785
v 0.382683 -1.000000 -0.923880
v 0.555570 -1.000000 -0.831470
v 0.707107 -1.000000 -0.707107
v 0.831470 -1.000000 -0.555570
v 0.923880 -1.000000 -0.382683
v 0.980785 -1.000000 -0.195090
v 1.000000 -1.000000 -0.000000
v 0.980785 -1.000000 0.195090
v 0.923880 -1.000000 0.382683
v 0.831470 -1.000000 0.555570
v 0.707107 -1.000000 0.707107
v 0.555570 -1.000000 0.831470
v 0.382683 -1.000000 0.923880
v 0.195090 -1.000000 0.980785
v -0.000000 -1.000000 1.000000
v -0.195091 -1.000000 0.980785
v -0.382684 -1.000000 0.923879
v -0.555571 -1.000000 0.831469
v -0.707107 -1.000000 0.707106
v -0.831470 -1.000000 0.555570
v -0.923880 -1.000000 0.382683
v -0.980785 -1.000000 0.195089
v -1.000000 -1.000000 -0.000001
v -0.980785 -1.000000 -0.195091
v -0.923879 -1.000000 -0.382684
v -0.831469 -1.000000 -0.555571
v -0.707106 -1.000000 -0.707108
v -0.555569 -1.000000 -0.831470
v -0.382682 -1.000000 -0.923880
v -0.195089 -1.000000 -0.980786
v  0.000000 -1.000000 0.000000
vn 0. -1. 0.
usemtl ConeMat
s off
f 32 2 33
f 1 2 3
f 33 2 1
f 3 2 4
f 31 2 32
f 30 2 31
f 29 2 30
f 28 2 29
f 27 2 28
f 26 2 27
f 25 2 26
f 24 2 25
f 23 2 24
f 22 2 23
f 21 2 22
f 20 2 21
f 19 2 20
f 18 2 19
f 17 2 18
f 16 2 17
f 15 2 16
f 14 2 15
f 13 2 14
f 12 2 13
f 11 2 12
f 10 2 11
f 9 2 10
f 8 2 9
f 7 2 8
f 6 2 7
f 5 2 6
f 4 2 5
g ConeBase
s 0
f 1//1 3//1 34//1
f 3//1 4//1 34//1
f 4//1 5//1 34//1
f 5//1 6//1 34//1
f 6//1 7//1 34//1
f 7//1 8//1 34//1
f 8//1 9//1 34//1
f 9//1 10//1 34//1
f 10//1 11//1 34//1
f 11//1 12//1 34//1
f 12//1 13//1 34//1
f 13//1 14//1 34//1
f 14//1 15//1 34//1
f 15//1 16//1 34//1
f 16//1 17//1 34//1
f 17//1 18//1 34//1
f 18//1 19//1 34//1
f 19//1 20//1 34//1
f 20//1 21//1 34//1
f 21//1 22//1 34//1
f 22//1 23//1 34//1
f 23//1 24//1 34//1
f 24//1 25//1 34//1
f 25//1 26//1 34//1
f 26//1 27//1 34//1
f 27//1 28//1 34//1
f 28//1 29//1 34//1
f 29//1 30//1 34//1
f 30//1 31//1 34//1
f 31//1 32//1 34//1
f 32//1 33//1 34//1
f 33//1 1//1 34//1
